<?xml version="1.0" encoding="UTF-8"?> <svg xmlns="http://www.w3.org/2000/svg" id="b" viewBox="0 0 334.38 74.12"><g id="c"><path d="M245.13,50.23c1.9,0,2.64.61,3.12,2.57,1.29,5.96,4.27,9.96,9.62,9.96,4.81,0,7.93-2.98,7.93-7.66,0-3.86-1.96-6.3-9.49-9.49-8.13-3.39-12.33-8.54-12.33-16.26,0-9.15,6.44-14.84,16.26-14.84,3.18,0,5.89.75,8.06,2.57l.14-.14c.61-.47,1.29-.81,2.03-1.08s1.49-.41,2.3-.27c0,0-.2,1.76.27,6.98.2,2.37.54,4.67.95,6.98h-4.07c-2.64-7.59-5.62-10.77-10.57-10.77-4.27,0-7.25,2.57-7.25,6.91s2.51,6.78,9.01,9.35c8.81,3.46,13.28,8.27,13.28,16.12,0,9.15-6.57,15.85-16.26,15.92-4.54.07-7.25-.95-10.16-2.98l-.14.14c-.61.54-1.29.95-2.03,1.22-1.08.34-2.17.54-3.25.54l1.49-15.79h1.08Z" fill="#181a17"></path><path d="M210.98,50.3c1.9,0,2.64.54,3.12,2.57,1.29,5.96,4.27,9.96,9.62,9.96,4.81,0,7.93-2.98,7.93-7.66,0-3.86-1.96-6.3-9.49-9.49-8.13-3.39-12.33-8.54-12.33-16.26,0-9.15,6.44-14.91,16.26-14.91,2.91-.07,5.76.88,8.06,2.71q.07-.07.14-.14c.61-.47,1.29-.81,2.03-1.08s1.49-.41,2.3-.27c0,0-.2,1.76.27,6.98.2,2.37.54,4.67.95,6.98h-4.07c-2.64-7.52-5.62-10.84-10.57-10.84-4.27,0-7.25,2.71-7.25,7.05s2.51,6.78,9.01,9.35c8.81,3.46,13.28,8.27,13.28,16.12,0,9.15-6.57,15.85-16.26,15.92-4.54.07-7.25-.95-10.16-2.98l-.14.14c-.61.54-1.29.95-2.03,1.22-1.08.34-2.17.54-3.25.54l1.49-15.79h1.08" fill="#181a17"></path><path d="M191.06,42.85c2.64,0,3.73.61,4.81,2.1.47.68.95,1.36,1.36,2.03l.14.2h2.71v-14.02h-3.25v.34c-.68,3.18-1.76,4.13-6.3,4.13l-5.35-.07v-17.48h11.31c1.36,0,1.63.27,1.76.81.34,1.02.47,1.56,1.22,3.46.41,1.22,1.02,2.37,1.76,3.39h3.52l-1.36-12.13h-35.37v4h.14c4.13,0,6.23,1.63,6.23,7.59v34.35l-4.88.47-.27,4h35.91l1.42-14.23c-.75-.2-1.56-.34-2.37-.34-.81-.07-1.56.41-1.9,1.15-.34.88-.88,2.3-1.69,4.4-1.42,3.46-3.32,4.4-8.54,4.4h-5.96c-.81,0-.95-.41-.95-1.15v-17.48l5.89.07Z" fill="#181a17"></path><path d="M142.28,19.68c7.25,0,11.52,2.91,11.52,9.15,0,7.45-4.88,10.1-11.65,10.1h-.2v-19.31h.34M162.74,51.45c-.88-5.28-4.95-9.49-10.23-10.57,0,0,0-.07.14-.14,5.69-1.42,12.2-5.96,12.2-12.47,0-9.62-8.67-12.6-22.36-12.6h-16.73v4h.2c3.46,0,5.22,2.51,5.22,7.32v34.62l-4.81.47-.27,4h21.82l.34-4.07h-.47c-5.42,0-5.89-.14-5.89-4.81v-13.96c.07,0,.2.07.27,0,5.62,0,8.47,1.96,9.62,7.05.54,2.24.68,4.2,1.22,6.91,1.29,6.91,3.59,8.94,11.04,8.94.75,0,1.22-.07,1.76-.07.68,0,1.56-.07,1.56-.07l.27-4c-2.71,0-3.39-.81-3.93-4.61-.47-3.39-.54-3.86-.95-5.96" fill="#181a17"></path><path d="M86.59,19.68c3.93,0,5.69,2.37,5.62,7.18v34.76l-4.47.41-.27,4.07h23.37l.34-4h-1.36c-6.5,0-6.98-.54-6.91-5.62v-12.06c.07.07.2.14.27.14,11.65,2.78,22.56-3.05,22.56-15.04,0-10.64-8.81-13.82-22.36-13.82h-16.87l.07,4ZM103.12,19.68c7.18,0,12.06,2.98,12.06,10.43s-4.88,10.91-11.86,10.3c-.14,0-.27,0-.34-.07v-20.66h.14Z" fill="#181a17"></path><path d="M67.14,19.68v-4h17.21v4l-5.35.54-11.99,17.75s11.52,18.23,13.01,20.53c1.63,2.57,2.85,3.52,4.74,3.52h1.15l-.27,4h-22.09l.27-4,5.01-.41-8.67-13.96s-6.5,9.89-7.79,11.86c-1.15,1.76-1.02,2.3.75,2.3l5.01.27-.27,4h-18.56l.41-4,5.42-.47,12.53-18.36s-10.7-17.41-12.67-20.66c-1.36-2.17-2.91-2.98-5.76-2.98v-3.93h22.49v4l-5.22.54,7.93,13.62,7.38-11.59c.95-1.49.75-2.17-.68-2.3l-4-.27Z" fill="#181a17"></path><path d="M22.97,42.85c2.64,0,3.73.54,4.81,2.1.47.68.95,1.36,1.36,2.03l.14.2h2.71v-14.02h-3.25v.34c-.68,3.18-1.76,4.13-6.3,4.13l-5.35-.07v-17.48h11.11c1.36,0,1.76.14,1.96.68.34,1.02.54,1.69,1.22,3.59.41,1.22,1.02,2.37,1.76,3.39h3.59l-1.36-12.13H0v4h.2c4.13,0,6.23,1.56,6.23,7.52v34.42l-5.28.47-.27,4h36.25l1.42-14.23c-.75-.2-1.56-.34-2.37-.27-.81-.07-1.56.41-1.9,1.15-.34.88-.88,2.3-1.69,4.4-1.42,3.46-3.32,4.4-8.54,4.4h-5.96c-.81,0-.95-.41-.95-1.15v-17.55h5.83" fill="#181a17"></path><path d="M298.03,74.12c-3.93-3.07-6.4-6.27-8.2-10.67-1.4-3.93-2.33-8.13-1.87-12.54.53-5.4,1.53-10.13,2.53-15.4.27-.27.07-.73.27-1.07.67-3,1.4-6,2.07-9,.27-.07.6-.07.87,0l-.33.07c2.47.13,5,.27,7.53.47.13.13.4.2.6.13l.6.07c.13-.53.4-1.07.73-1.53-.67-1.33-1.4-2.6-2.27-3.8,0,0-2.13-3.4-2.6-3.73-.53-.33-1.07-.6-1.6-.87-.67-.33-1.4-.27-2.4-.67-1.2-4-3.2-8.87-4.27-13.8l1.53,1.6,5.2,5.33,3.07,2.67c0,.8.13,1.53.4,2.27.2.87.8,1.47,1.2,2.27,1.73,2.53,2.6,3.53,4.2,6.07.6-.27,1.2-.6,1.67-1-.87-.47-.6-3.47-.6-3.47-.2-1.53-1.47-2.93-.73-4.6.2-.33.33-.67.4-1-.13-.87-1.2-1.4-.4-2.33.07-.13-.27-.6-.27-.8-.07-1.8.47-3.47.67-5.2.33-.67.93-1.2,1.6-1.53,1.73-.73,3.93-.87,5.73-1.4.13.13.2-.13.33-.13.93,0,1.73-.8,2.67-.4,1.4,1.4,2.73,2.87,4.07,4.33,1,.67,1.47,1.73,2.27,2.67.2.47.67,1.27.4,1.8l-.6.73-.2,3.47c-.2.33-.13.73-.4,1v.2l-.07-.07c-.07.8-.2,1.6-.47,2.4-.13.87-.27,1.87-.33,2.87-.13,1.73.33,2.47.87,4,.4.4,1.2,1.4,1.8,2.2.8,1.07,2.87,2.87,4.47,6.13s3.47,9.2,4.73,15.8c.33,2.53,1,4.4.07,6.93-1.27,1.67-1.67,1.87-3.4,2.6,0,0,4.8,6.53,4.8,7.8.07.47-.07.87-.4,1.27h-20.74c-2.27,3-8.67,7.2-15.07,7.8" fill="#fff"></path><path d="M311.63,13.38c-.13-.4-.53-.13-.73-.4v.07l-.13-.07c.2.33.33.73.33,1.2.27.33.6.4.8.8.13.07.27.33.4.4.07-.07,0-.2,0-.27-.47-.47-.27-1.2-.67-1.73Z" fill="#ff000d"></path><path d="M323.3,57.65c.53-.07,1-.13,1.53-.13q0-.07.07-.07c0,.13.2.07.27.07,1.8,2.4,3.47,5,5.07,7.53.93,0,2,.13,2.93.13,0-.13,0-.27-.07-.4-1.67-2.67-3.67-5.27-5.47-7.93,1.6-.6,3.27-1.33,4.33-2.87.87-2.33.07-4.93-.2-7.2-1.4-5.53-2.2-11.27-5.2-16.07-.2-.13-.27-.27-.33-.47l-1.27-1.67c-1.13-1.4-2.33-2.67-3.4-3.93-.4-.33-.47-.8-.8-1.13-.53-1.47-.8-3-.8-4.53.07-.93.33-1.8.47-2.6.2-.73.33-1.47.4-2.2v.07-.13c.27-.27.2-.67.33-.93l.33-3.67.33-.4c.27-.53-.07-1.07-.27-1.47-.73-.8-1.13-1.8-2-2.4-1.2-1.33-2.4-2.67-3.67-3.93-.87-.33-1.53.4-2.4.4-.13,0-.2.2-.33.13-1.67.53-3.6.6-5.2,1.27-.6.33-1.13.8-1.4,1.4-.13,1.53-.67,3.13-.6,4.73,0,.2.27.2.33.13,0,.13,0,.27-.13.4-.67.8.27,1.53.33,2.33-.07.2-.13.4-.27.47h.07c-.07.13-.07.27-.2.4-.67,1.53.53,2.8.67,4.2l.2,2.2c0,.93,1,1.2,1.67,1.4-.07.2.13.13.2.27,0,.2.27.33.13.53l-.13-.07c-1.07.2-2.07.6-3,1.2-.4.13-.6.6-.93.73v-.07c.07-.2-.2-.4-.33-.6-1.47-2.33-3.07-4.47-4.67-6.73-.33-.73-.93-1.27-1.07-2.07-.2-.67-.33-1.4-.33-2.07l-1.67-1.6-4.73-4.87-1.33-1.47c1.53,3.47,2.8,7,3.87,10.6.93.27,1.8.73,2.6,1.2.53.13.87.6,1.33.93l2.33,3.27c1,1.6,2.2,3.07,3,4.73-.6.67-1.07,1.4-1.53,2.13,2.07.33,4.2.87,6.2,1.2l-.27-.07c-.13-.07-.33-.27-.33-.47.13-.2.27,0,.47.07-.07-.07-.13-.13-.13-.2h.07c.2.4.67.2.93.4,0,.2,0,.33-.2.4.27.13.53.2.87.27l-.13-.13c.33-.13.67.07,1.07,0,.2,0,.4.2.2.4.33.07.67.2,1,.33-.27-.13-.73-.53-.73-.93h.33c.33.13.73.07,1,.33.07.33-.27.4-.47.6,1.13.27,2.27.6,3.33.93-.53-2.07-1.73-4-3.4-5.4-1.2-.87-2.6-1.53-4.07-1.8,0-.07-.07-.13,0-.2.93-.33,1.93-.47,2.87-.47,2.67-.13,4.87,1.73,6.6,3.67,1.33,1.4,2.47,3.2,4,4.33.6.27,1.27.13,1.67-.33.53-.53.2-1.27.07-1.93,0-.07-.13-.13-.13-.27,2.27,2.6,3.8,5.8,4.33,9.2.13.2,0,.4.13.6l.2,1.93c.4,5.93-1.53,11.2-4.33,15.87-1.67-.8-3.4-1.4-5.2-1.93l-1.07,3.87c.93.4,2,.6,2.93,1l1.13,1.33c.93,1.4,1.67,2.93,2.13,4.6-3.27.2-6.4,0-9.67.07-.33.27-.53.67-.87.93l.8.07c.27-.07.67.07.93,0h10.47c-.6-1.47-1.13-2.93-1.8-4.4-.33-.4-.47-.93-.8-1.4.13-.27.27-.53.27-.87.27-.2.4-.53.53-.8h0ZM307.29,24.65l.27.13c-.2.07-.33.33-.53.47s-.6-.27-.93-.27v-.27c.47.4.8-.27,1.2-.07h0ZM305.96,23.65l.73.07c.13.33-.27.2-.4.33-.13-.07-.4.07-.47-.13s0-.27.13-.27ZM305.49,24.58c.07.13,0,.27-.13.27-.2-.07-.47-.07-.47-.33.2-.07.47-.07.6.07h0ZM301.43,19.38c-.07.13-.2.2-.33.27v-.07c-1.4-2.13-2.87-4.27-4.33-6.33-.67-1.2-1.47-2.33-2.27-3.4.47,1.33,1.07,2.67,1.47,4-.07.2-.2.27-.4.27h-.07c-.33-.2-.6-.53-.67-.93l-2.33-6.47-.2-.2c.2.13.47.27.53.53,1.73,1.8,3.33,3.6,5.2,5.2.27,0,.07.27.13.4.33,2.6,2.27,4.47,3.4,6.73.07,0-.07-.07-.13,0ZM303.76,27.05c-.13-.07-.4-.07-.4-.27.13-.2.33,0,.53,0,.07.07-.07.13-.13.27h0ZM304.23,24.12c-.87-1.2-1.73-2.53-2.53-3.8.07-.07.13-.27.27-.13-.07-.27.27-.13.33.07.8,1.07,1.6,2.27,2.33,3.4-.13.2-.13.53-.4.47ZM304.43,25.45c.27,0,.47.13.73.2-.2,0-.07.13-.13.27-.2.07-.47,0-.53-.2v-.07l-.07-.2ZM305.29,27.32c-.27-.13-.53-.13-.73-.33l.13-.2c.27.13.6.07.93.27-.13.07-.13.2-.33.27ZM306.03,26.12c-.13-.13-.27-.33-.4-.53.4.2.87.33,1.33.33-.27.07-.6.47-.93.2ZM306.56,27.38c.07-.13-.2-.07-.07-.27-.07-.07-.2-.13-.2-.27.4.13.87.13,1.27.13.2.07,0,.2.13.33-.33.2-.8.2-1.13.07h0ZM309.03,26.72c-.33.13-.73.13-1.07,0-.2-.07-.33-.2-.53-.27,0-.2.2-.13.27-.27.27.2.67.13,1,.33.13,0,.2-.07.33,0v.2ZM310.36,27.98c-.4-.2-.93-.27-1.13-.73.07-.13.27-.27.4-.13.2.07.4.13.6.13.33-.13.2.4.47.47.07.27-.27.13-.33.27ZM310.5,26.65c-.33.27-.6-.13-.87-.27s-.07-.33.13-.4c.47-.07.8.33,1.27.33-.07.2-.4.07-.53.33h0ZM311.5,27.65c-.27-.13-.53-.27-.6-.6.07,0,.2-.27.33-.13.13.2.27.33.47.33.13.07.27.07.4.2-.07.13-.4.07-.6.2h0ZM314.56,28.78l.07.13c0,.07-.07.2,0,.27.07-.07.13,0,.13,0,0,0-.13.2-.2.07-.33.6-.93-.07-1.4-.07.07-.07.13-.2.13-.33.47,0,.87-.33,1.27-.07h0ZM313.56,27.45c.13.13.33.33.33.6l-.07.2c-.47-.07-1.07,0-1.27-.53.27-.4.73,0,1-.33v.07ZM312.9,26.25h.07c.07.13.13.27.2.4-.07.33-.47.2-.67.33-.33-.07-.6-.13-.93-.33-.07-.07-.07-.13-.07-.2.13-.07.4.13.53-.07.47.2.53-.67.87-.13h0ZM311.56,25.05c.2.13.6.07.53.47.07.07.13,0,.27-.07-.47.33-1.07.4-1.6.2l-.2-.2c.2-.27.87,0,1-.4ZM309.76,24.52c.07.07.27,0,.4-.13.2-.13.47-.13.67-.07l.13.13c.07.2-.07.4-.27.47-.4.07-.87.07-1.2-.13l.27-.27ZM308.76,25.85c-.27-.27-.67-.27-.87-.53.2-.27.33.07.6.07s.67-.33.93,0c0,.33-.47.27-.67.47h0ZM309.1,23.78l.2-.13c.07.07-.13.07-.13.13s.2.27.13.47l-.6.4c-.4-.07-.93-.2-1-.67.07-.13.2,0,.33-.07.4.07.73-.2,1.07-.13ZM322.96,27.85l-.07.27c-.13.33-.53.13-.73.13-.07-.07-.27,0-.33-.13.07-.27.4-.07.53-.27.07,0,.13.07.2,0s-.07-.07-.07-.07c.2-.47.27.13.47.07h0ZM320.76,27.32l-.13-.2c.27-.2.53-.07.8-.2.13.07.33.13.33.33-.2.27-.6,0-1,.07h0ZM322.5,26.58c0,.13.07.2.13.33,0,.13-.13.07-.2.13l-.07-.07c-.27,0-.47-.07-.67-.2v-.07c.2-.27.6-.53.8-.13h0ZM321.5,25.58c.2.13.33.4.33.6l-.07.07c-.13-.13-.33-.13-.47-.27-.2,0-.33-.07-.47-.2,0-.13.13-.13.2-.13.2.07.27-.27.47-.07h0ZM321.1,24.65c-.07.13.07.33,0,.4-.27-.2-.87.13-.87-.47.07-.13.2.07.27-.07.13-.27.4,0,.6.13ZM320.23,25.92c.13-.07.07.07.13.13s.27.27.27.4c-.27.13-.53,0-.73-.07-.07-.13-.27-.2-.33-.33.13-.27.47,0,.67-.13ZM319.03,25.32c.13-.13.2-.47.4-.33l.2-.2c.2.07.07.33.27.33l.07.13c-.27.2-.6,0-.93.07h0ZM320.36,23.72c0,.2-.13.4-.33.4h-.07c-.27,0-.47-.13-.6-.4.13-.33.67,0,.67-.47.2,0,.2.27.33.47ZM320.1,22.38c-.13.2-.27.47-.47.6-.33-.07-.73,0-.8-.47.13-.4.73.07.8-.4,0-.13.13-.2.2-.13.07,0,.13.07.13.13s-.07.2.13.27h0ZM315.16,18.91c.4-.07.87-.07,1.27.07,0,.07.2.13.07.2-.27.2-.6.27-.93.13-.13-.2-.47-.2-.4-.4ZM315.43,20.45c-.47,0-1,.2-1.27-.27,0-.2.2-.2.33-.27.13.07.27.07.33.07.07-.27.53-.27.53,0,0,.13.13.2.07.33v.13ZM318.03,12.71c-.33-.07-.8-.07-1-.47.07-.07,0-.27.2-.33.27,0,.6.07.8.27v.53ZM318.83,13.38l.27.07c.07.13-.07.33-.2.33s-.47.2-.67.07c-.2-.2-.33-.4-.4-.67.33-.13.67-.07,1,.13v.07ZM317.36,13.11c0,.07-.07.07-.2.07v-.2h.13l.07.13ZM316.96,11.18c-.07-.07-.13-.2-.07-.27s.33.2.33,0c0,.2.2.27.2.47-.27.07-.4-.13-.53-.27l.07.07ZM317.16,13.71c.27.07.6.13.73.33,0,.07.2-.07.2.07s-.33.33-.53.4c-.07-.13-.2-.13-.33-.13-.13-.13-.33-.33-.2-.6l.13-.07ZM318.3,14.98l.27.2.2-.07c.07,0,.07.13.07.27-.2.13-.47.53-.73.33-.33-.07-.33-.47-.6-.67.2-.47.47,0,.8-.07h0ZM318.1,16.85l.33.27c-.13.07-.27.27-.47.33-.4-.2-1.07-.13-1.2-.73.33-.13.67-.07.93.2l.4-.07ZM319.1,17.85l.13.2c-.07.13-.13.27-.27.33-.27.07-.6.07-.93-.07-.07-.2-.47-.2-.27-.47.4-.13.8-.2,1.27-.13l.07.13ZM317.36,18.11c0,.27.33.33.4.53-.27.2-.6.2-.93.07-.13-.13-.47-.27-.4-.47.2-.27.6-.13.87-.2l.07.07ZM317.56,19.45c.07.13.27.07.33.07s.2-.33.4-.33c.07.07,0,.2.13.27,0,.27-.27.53-.53.53-.27-.07-.67-.13-.8-.47.07-.13.33-.27.4-.13l.07.07ZM318.23,20.25c.33,0,.67-.33,1.07-.27l.13.2c.07.2-.13.4-.27.53-.27.13-.6.13-.8-.07-.13-.13-.4-.27-.13-.47v.07ZM319.23,19.38c-.2-.07-.4-.2-.47-.4.13-.07.27.07.4-.07s.27-.33.47-.33c.13.2-.07.4.07.53,0,.33-.33.07-.53.2l.07.07ZM319.1,17.25c.13-.07.27-.13.4-.13l.27-.47c.27.07.13.4.2.6-.07.2.07.47-.13.53-.27-.2-.67-.27-.8-.53h.07ZM319.03,16.71c-.27-.13-.6-.07-.8-.33.2-.2.4-.13.67-.27.27-.07.53.07.73.27-.13.13-.47.2-.67.33h.07ZM318.5,14.58c.2-.2.47-.2.8-.27.13-.4.33.13.6,0,.07.07,0,.07,0,.13l-.67.6c-.33-.07-.6-.27-.73-.53v.07ZM318.96,12.85c.07,0,.13-.07.13-.13s-.2-.13-.2-.13c.2.07.47.07.73,0,.07-.07.07-.2.07-.27.27,0,.53,0,.6.27-.07.2-.33.33-.53.47-.33-.07-.67.07-.8-.27v.07ZM319.23,11.25c-.27,0-.47-.33-.53-.53l-.07-.4c.4.07.53.47.67.73l-.07.2ZM319.23,11.91c-.13.33-.4.13-.67.27-.27-.07-.27-.33-.47-.47.13-.13.27-.2.4-.2.27.07.47.2.67.33l.07.07ZM317.76,11.05c-.2-.07-.33-.4-.47-.53.13-.33.47-.07.67-.07.07.13.13.27.13.4-.13.07-.27,0-.4.07l.07.13ZM316.9,9.71c.07-.27-.47-.4-.2-.67.27.13.93-.13.87.4-.27.07-.4.4-.67.27ZM316.7,15.45c.2-.2.4,0,.47.2l.33.27c-.13.07-.47.27-.73.13-.07-.07-.27,0-.33-.13s.33-.2.27-.47h0ZM316.96,17.45v.13c-.33-.13-.67.33-.93,0-.13-.13-.2-.27-.13-.47.07-.07.07-.2.27-.2.33,0,.53.33.8.53ZM316.63,19.85c.13-.07.4,0,.47.13-.07.33-.53.33-.8.4-.13-.27-.47-.33-.53-.6.2-.2.67.4.87.07h0ZM316.5,21.65c.2.2.8-.07.53.47-.13.33-.53.2-.73.27-.2-.2-.53-.27-.73-.47.2-.33.67-.07.93-.27h0ZM316.56,21.05v-.13c.2-.07.33-.33.53-.07.33.07.6-.4.87-.07v.47c-.47.13-1,.27-1.4-.2h0ZM317.56,22.25c.27.07.4.4.73.13.2.07.13.4.2.53-.4.13-.87.07-1.2-.27,0-.13,0-.4.27-.4ZM317.96,21.65c.07-.27.47-.2.67-.4.27.13.73-.47.73.13,0,.4-.53.2-.73.33-.27.13-.47.07-.67-.07ZM320.23,15.71c-.07.27-.33,0-.53,0l-.47-.33c.2-.33.67-.27.93-.6l-.07.07c.33.2.07.67.13.87ZM320.43,13.78c-.2.33-.47,0-.8.07l-.2-.2c0-.27.4-.07.4-.33.13-.07.2-.2.33-.13v-.07l.13-.13s-.07.13,0,.13v.07s-.27.07-.13.13.2,0,.2.13c.07.13.07.27.07.33ZM313.23,2.38c.73-.13,1.67.53,2.13-.33.2-.33.4,0,.47.13.47.53,1.13.8,1.4,1.47-.27.13-.53-.13-.8-.27-1-.4-2.07-.73-3.2-.93v-.07ZM314.76,3.45l1.93.67c1.07.73,2.4,1.13,3.27,2.27q-.07,0-.07.07c0,.07.07.07.13.07h.07c.33.6.13,1.33.07,2l-.27,2.07c.2.27.4.53.53.8l.07-.2c.07-1.13.2-2.27.33-3.47,0-.07.07-.13.13-.13.13.13.27.33.33.53h-.07c0,1.33-.07,2.73-.33,4.07l-.13-.07c-.13,0-.13-.13-.2-.2.07-.2-.2-.07-.2-.27-.27-.33-.53-.6-.8-.87-.4-.53-.8-1-1.33-1.4-.47-.4-1.07-.8-1.6-1.07-1.33-1-3-1.13-4.6-1.53-.8,0-1.6,0-2.4.13v-.13h.07c.27-1.2.53-2.47.67-3.67,1.47-.2,3-.13,4.4.33h0ZM309.1,3.58c.2-.13.47-.27.73-.27-.2,1.27-.53,2.47-.67,3.73l-.67.27c.13-1.27.33-2.6.6-3.73ZM307.09,7.58c-.2,0-.33.27-.47.2.07-1,.33-2,.53-3,.13-.13.4-.07.33.13l-.4,2.67ZM310.5,19.58c-.73-.07-1-1.6-1.87-.8-.07.2-.33.4-.33.67l-.07.07c-.2-.33,0-.93-.07-1.2.07-.53.67-.53,1.07-.67l.73.07.07-.07c-.2-.27-.33-.6-.4-.93-.33-.13-.73.07-1.13,0-.13.07-.33,0-.47-.07h.13c0-.07-.07-.2,0-.33.47-.27,1-.4,1.53-.47.27.13.53-.07.73.13l.8.13c.13.2.33.33.53.4.13-.07-.13-.13-.07-.27v.07c-.2-.13-.2-.93-.6-.53-.8.07-1.47-1-2.27-.33-.27.07-.47-.33-.67-.07l-.27.2c.07-.33.2-.73.33-1h-.13c.33-.13.73.2.93-.2l-.07-.13.07.07v-.07l-.07-.07.13-.07c.47,0,1.07.47,1.33-.07,0-.27-.13-.6-.4-.73-.47-.07-.87.33-1.27.27-.27-.13-.67-.33-.73-.6.2-.87.53-1.73.93-2.53.27-.07.47.13.73.07.2.53.8.67,1.2,1,.33.07.67.27,1,.2.07-.07.2.07.33.07-.07-.4-.6-.67-.6-1.2-.07-.07-.13-.07-.07-.13.87-.2,1.73-.07,2.47.4,0,0,.07,0,.13-.07-.8-.47-1.47-1.33-2.47-1.13l-.2-.07c.93-.67,2,.13,2.93.27l.07-.07c-.87-.6-1.8-1-2.8-1.2-.6.07-1.2.2-1.8.4-.27-.2-.53-.4-.4-.87-.07-.07.07-.13.07-.2.87-.33,1.8-.47,2.73-.33,1.27.2,2.53.6,3.67,1.13-.07.47.33.8.33,1.27.33,1.73.33,3.53.07,5.33-.27.67-.47,1.27-.73,1.87-.33.67-.8,1.33-1.4,1.73-1.07.87-2.53,1.13-3.73.67h0ZM312.03,21.91c-.13,0-.33-.07-.4-.2s.2-.07.27-.13c.07,0,.2,0,.2.13,0,.07-.07.07-.07.2h0ZM312.76,20.98v-.2l.73.2c.13-.13.47-.67.67-.13-.13.2-.27.33-.4.53-.33-.13-.8,0-1-.4h0ZM314.3,22.38c-.33-.13-.73-.13-1-.4.2-.13.53-.2.8-.13.13-.07.6-.13.47.2,0,.2-.27.07-.27.33h0ZM315.36,21.18c.07-.2.33-.33.53-.27,0,0,.07,0,.07.07v.2c-.33.13-.6.27-.87.47-.2-.13-.47-.27-.47-.47.2-.13.47-.13.67-.07l.07.07ZM315.23,23.05l-.53-.33c.13-.13.4-.13.53-.27.2.2.47.33.8.4-.27,0-.53.27-.8.2ZM316.1,23.38c.13,0,.27-.2.27-.33.13.13.33.13.47,0l.47.27c-.07.4-.53.13-.67.33-.2-.13-.47-.13-.53-.33v.07ZM317.1,24.65c-.07-.13-.4-.2-.27-.4s.4-.07.6-.13l.33.33c-.13.2-.47.27-.67.13v.07ZM318.36,23.58c.13-.07.33-.07.53-.07-.2.2.2.53-.13.67-.2.07-.4.07-.53-.07l-.33-.4c.13-.07.33-.13.53-.2l-.07.07ZM318.83,24.65c0,.2-.13.33-.33.4-.13.13-.33.07-.47,0v-.07c.07-.53.47-.27.73-.4l.07.07ZM318.5,26.12c-.2-.07-.53-.2-.47-.4.2-.07.4-.13.67-.07.13.07.07.33.27.33-.2,0-.2.27-.47.13h0ZM318.83,26.65c.07-.27.33-.07.53-.07l.33.27c-.13.2-.33.13-.6.13s-.27-.27-.33-.47l.07.13ZM319.63,27.78c.07-.33.47-.13.73-.27l.27.33c-.13-.07-.27,0-.4.13-.2-.2-.6,0-.6-.33v.13ZM320.56,28.65c-.07-.07,0-.07-.07-.13.27-.2,1-.47,1,.13-.33.2-.73.2-1,0h.07ZM321.83,29.78c-.13-.13-.6-.07-.47-.4s.33,0,.53-.13c.13.13.27.53.53.53-.2,0-.4,0-.6-.07v.07ZM323.23,29.38c-.13-.07-.13.13-.2.13-.33.07-.27-.33-.6-.27.07-.13.33-.13.47-.2.13,0,.33.07.33.27-.07-.07-.07,0-.07.07h.07ZM325.63,55.65c.27.07.6.07.73.33-.13.33-.47.07-.73.07-.07-.2-.27-.33-.07-.47l.07.07ZM326.1,54.99c0-.07.07-.2.13-.2.13.33.93.07.53.6-.27-.13-.6-.07-.67-.4ZM331.7,64.12c-.4-.07-.87.07-1.27-.13-1.53-2.2-2.93-4.27-4.53-6.47,0-.13-.13-.4.13-.47s.6-.13.93-.13c.07.07.13.27.27.2l-.13.07c1.67,2.33,3,4.6,4.6,6.93h0ZM327.7,56.39c-.33.07-.53-.2-.8-.27-.07-.07-.07-.13,0-.2l.07-.07c.4-.13.47.27.8.27,0,.07,0,.2-.07.27ZM327.23,54.72c-.07-.33-.67-.33-.4-.73.27.2.47.07.8.13.4-.07.13.4.4.6-.33-.13-.6.4-.8,0ZM327.83,53.52c-.2-.2-.53-.27-.53-.6.33-.53.8,0,1.2,0,.13.07.27.2.33.33-.47-.13-.67.53-1,.27ZM328.56,41.92c-.07-.07-.27-.13-.27-.27.2-.13,0-.6.2-.73.27.07.4.4.6.47-.07.33-.4.27-.53.53ZM329.56,42.98l.33.07c.07.07.07.2,0,.27-.2.2-.47.07-.67.27-.27,0-.67,0-.53-.4,0-.07.07-.13.13-.13.27.13.4-.4.73-.07h0ZM328.36,44.12c.13-.2.27.07.4,0,.07.13.07.33.2.4-.2.07-.4,0-.6-.13,0-.07-.07-.2,0-.27ZM329.83,45.05h.53c-.27.4-.73.4-1.13.33-.13-.13-.2-.27-.27-.47.13-.47.53.07.87.13h0ZM330.1,51.32c-.2-.27-.53-.27-.73-.6.13,0,.27.07.4-.07.2.07.47.07.67-.13.13.13.27.2.47.27-.4.13-.47.53-.8.53h0ZM330.63,52.59c0,.07.07.13.2.13-.33.13-.4.6-.87.53l-.07.07-.6-.47c.27-.27.6-.4,1-.33.07.07.13,0,.33.07ZM330.03,49.45c-.13-.27-.47-.33-.73-.4.13-.53.53-.07.73-.33.2-.13.53-.47.67-.07,0,.2.27.47-.07.53s-.27.27-.6.27h0ZM329.63,47.39c-.13-.13-.4,0-.53-.2.2-.07.47-.27.73-.33s.47,0,.73.07c-.33.13-.47.87-.93.47h0ZM329.56,48.05c-.13.27-.4.33-.6.6-.33-.13-.8-.2-.8-.73.13-.33.4.07.67.13s.47-.33.73,0ZM328.5,49.72c.33.4,1-.33,1.2.33-.07.33-.4.27-.53.53-.2-.07-.47-.2-.67-.2l-.27-.33c0-.2.07-.33.27-.33ZM329.23,51.52l.33.27c-.2.2-.4.47-.67.47-.27-.13-.8-.13-.73-.67.33-.13.73-.2,1.07-.07ZM329.23,55.59c-.33,0-.67.4-1,.07-.07-.13-.27-.27-.07-.4s.27-.07.4-.07l.13.13c.2,0,.53-.13.53.13v.13ZM329.36,54.79c-.4,0-.8-.07-.93-.47,0-.07.07-.07.13-.13s0-.27.13-.27.27.13.4.27c.27.13.73-.2.8.27.07.07,0,.2.07.27-.2,0-.4.2-.6.07h0ZM331.23,54.12c-.33,0-.6-.07-.8-.33.33-.27.8-.8,1.27-.4-.33.13-.27.53-.47.73h0ZM331.9,51.19c.07.27,0,.53-.2.73-.4.07-.73.07-1.07-.07-.07-.53.6-.53.93-.73.07-.07.2-.07.33.07ZM331.56,49.65c0,.2,0,.53-.2.67-.13,0-.27-.2-.47-.13l-.27-.33c.27-.13.53-.4.87-.4l.07.2ZM330.96,47.99c-.2-.13-.33,0-.53-.13.2-.2.2-.47.47-.53.2,0,.4.13.53.27,0,.2-.27.33-.47.4ZM331.03,45.78c.07.27-.2.47-.4.47-.27,0-.6-.07-.87-.2.33-.2.67-.4,1-.67.13-.07.13.2.27.4h0ZM330.76,43.92c0,.13-.07.33-.2.4-.33.07-.73.07-1.07-.07l-.07-.13c.4,0,.67-.4,1.07-.47.07.07.2.07.27.27h0ZM330.3,41.98c.13.33-.13.47-.4.53-.27-.07-.6-.07-.73-.4.33-.2.87-1,1.13-.13h0ZM329.96,39.72c.13.4-.27.53-.2.87-.33,0-.73-.07-1.07-.27.07-.4.53-.27.8-.47.07-.13.27-.4.47-.13h0ZM329.3,38.38c-.27.27.07.6-.27.73-.27-.07-.53-.13-.8-.27.07-.4.53-.4.8-.6.07-.07.2,0,.27.13h0ZM327.9,35.32c.13-.07.27,0,.33.13v.07l-.07.2c-.2.07-.33-.13-.4-.27s.07-.2.13-.13ZM327.96,37.05c0-.2.33-.27.2-.53.13.27.53,0,.67.27-.07.27-.07.53-.4.6-.2,0-.4-.13-.47-.33h0ZM328.3,45.78c.2.07.53-.07.67.13l.4.07c0,.2,0,.53-.27.47-.4,0-.87,0-1.07-.4-.07-.13-.07-.27.07-.33.07,0,.13,0,.2.07h0ZM328.36,47.12c0,.13-.13.13-.27.27-.13,0-.33-.07-.33-.27.13-.33.47-.27.6,0ZM327.36,48.79c.2.13.47.2.67.07,0,.13.07.2.13.33-.13.13-.33.53-.53.2-.13,0-.2.2-.33,0s0-.2-.13-.27c0-.13,0-.27.2-.33ZM327.03,50.45c.27.07.47.4.73.2.2-.13.33.13.53.27l-.6.33c-.33-.07-.73-.27-.8-.6,0-.07,0-.27.13-.2ZM327.36,51.99c.07.07.2.27.07.33h.07c-.27.2-.67-.07-1-.13-.07-.13-.27-.13-.27-.33.33-.33.67.27,1.13.13h0ZM325.96,52.92c.27.07.4.27.73.2.13.07.07.27,0,.33-.33,0-.67,0-.87-.33-.07-.07-.07-.13,0-.2h.13ZM325.36,54.05c.07-.13.6-.13.53.2-.13.07-.33,0-.47.07s-.13-.2-.07-.27h0ZM325.03,55.12c.13,0,.33,0,.4.2,0,.4-.27-.07-.47.07-.13-.07-.07-.27.07-.27ZM324.7,56.45c.13.07.4,0,.47.2s-.2.07-.33.13c-.13,0-.2,0-.27-.13,0-.07.07-.2.13-.2h0Z" fill="#ff000d"></path><path d="M321.36,33.05c-2.13-1.07-4.33-2-6.6-2.67-4.27-1.33-8.67-2.33-13.14-3-.2.07-.4,0-.53-.13-2.27-.2-4.6-.33-6.8-.47l.27-.07c-.27-.07-.53-.07-.8,0-.6,2.73-1.27,5.47-1.87,8.2-.13.33,0,.73-.27,1-.87,4.8-2.07,9.53-2.53,14.47-.4,3.87.07,7.8,1.4,11.47,1.67,4.07,4.07,8.13,7.67,10.93,5.87-.6,11-3.8,14.87-8.47.13-.07.07-.33.27-.33,2.6-3.13,3.8-6.93,4.67-10.87l-.07-.07c.13.07.13-.2.2-.13.2-1.87.8-3.87,1.13-5.87.87-4.47,1.6-8.93,2.4-13.54-.07-.07-.07-.33-.27-.47h0ZM304.69,37.92c.47-1.6.8-3.33,1.33-4.93.07-.33-.4-.33-.33-.67-.27-.2,0-.6-.13-.8.07-.67.8-1.07,1.4-1.27.6-.07,1.13.27,1.47.8l.2.8c-.13.6-.47,1.2-1,1.47l-.07.13c-.33,2-.47,4.2-.8,6.13,1.27.4,2.47,1,3.6,1.8,0,.4-.2,1-.2,1.33-1.07-.4-2.07-.87-3.13-1.13-1.8-.4-3.6-.73-5.4-.87-.6,0-1,.2-1.53,0,.07-.47.07-1,.2-1.47,1.4-.27,2.8-.27,4.2-.07,0-.33.13-.8.2-1.27h0ZM294.49,28.18c.13-.13.07-.33.13-.47,1.13.2,2.4.13,3.6.27l5.8.67c-.53,2.93-1.2,5.73-1.87,8.67-.13,0-.13.13-.2.2-3-.53-6-.8-9-1.13.07-.13-.07-.13-.07-.27.47-2.73,1-5.27,1.6-7.93h0ZM297.29,59.92c-.47,1.73-.8,3.6-1.07,5.4-.27,1.27-.4,2.6-.53,3.73l-.07.07c-4.2-5.2-6.2-11.93-5.53-18.6.13-2.13.47-4.27,1-6.33,1.07-.33,2.33,0,3.6.07,1.87.2,3.87.6,5.73.8-.8,3.93-1.6,7.87-2.33,11.8-.4,1.07-.67,2.07-.8,3.07h0ZM300.49,68.19l-.07.33c-.4.8-.93,1.53-1.6,2.27-.47-1.07-.73-2.2-.73-3.33,1-6.07,2.33-12.13,3.47-18l1.4-6.73c.27-.07.53-.33.8-.33l.13.2-1,5.8-2.4,12.67c-.2.73-.27,1.53-.4,2.33h.07c1.67-7,3-14.07,4.8-21h.07c.07.07-.13.07,0,.13.07-.27.33.07.47.13.2.27.47.47.73.67l.13.2-.27.87-3.13,14c-.67,3.2-1.53,6.27-2.4,9.4.13.13-.13.2-.07.4h0ZM317.63,49.99c-.33.6-.13,1.13-.33,1.8-.47,2.53-1.13,5-2,7.4-2.2,4.33-5.67,7.87-9.87,10.13-1.07.6-2.13,1.13-3.27,1.53.07-.4.13-.73.13-1.13l-.2.8c1-4.67,2.2-9.27,3.2-13.94.8-3.07,1.47-6.33,2.2-9.53.2-.13.4.13.53,0,1.8.27,3.53.8,5.33,1.2,1.4.6,2.87,1,4.27,1.6v.13ZM320.23,35.85c-.33,2.13-.67,4.33-.87,6.53-.2.13-.4-.13-.6-.2-1.07-.33-2.07-.8-3.13-1.07l-.07-.07c-2-.53-4-1.2-6.07-1.67.07-.07-.07-.13-.13-.13.33-.47.27-1.13.47-1.67.53-2.4,1-4.93,1.67-7.27,3.2.6,6.07,2.07,9.07,3.33-.27.73-.13,1.53-.33,2.2h0Z" fill="#ff000d"></path></g></svg> 