<?xml version="1.0" encoding="UTF-8"?> <svg xmlns="http://www.w3.org/2000/svg" id="b" viewBox="0 0 514.25 76.17"><g id="c"><path d="M88.6,18.89l1.66.33c3.91.73,4.37,3.05,4.37,5.17v26.97c0,2.19-.53,4.37-4.37,5.17l-1.66.33v.86h19.22v-.86l-1.66-.33c-3.84-.8-4.37-2.98-4.37-5.17v-26.97c0-2.12.53-4.44,4.37-5.17l1.66-.33v-.86h-19.22v.86ZM479.07,18.03v13.32h.8l1.99-4.9c1.99-4.9,3.98-7.55,9.14-7.55h2.12v32.47c0,2.12-.46,4.64-4.37,5.23l-1.66.27v.86h19.22v-.86l-1.72-.27c-3.84-.66-4.37-3.11-4.37-5.3V18.95h2.12c5.17,0,7.22,2.65,9.14,7.55l1.99,4.9h.8v-13.38h-35.18ZM461.91,18.89l1.59.2c2.92.4,5.63,1.86,5.7,9.41l.13,18.09-15.37-18.22c-4.64-5.43-6.49-7.75-7.82-10.2l-.13-.13h-14.05v.86h.27c2.92.53,4.7,1.72,7.75,5.04l.6.66v20.81c0,8.88-2.78,10.34-6.16,11.2l-1.19.27v.86h15.77v-.86l-1.13-.27c-2.98-.8-6.1-1.66-6.16-11.26l-.2-19.75,27.83,32.87.13.07h.86v-30.02c0-7.55,2.85-9.01,5.7-9.41l1.52-.2v-.86h-15.64v.86ZM300.56,50.56c-2.65,4.57-5.9,6.23-11.93,6.23h-1.72c-3.31,0-4.84-1.66-4.84-5.3v-13.78l2.45.07c6.03.13,7.69.4,9.61,6.23l.66,2.12h.86v-17.82h-.86l-.66,2.19c-1.86,5.83-3.64,6.1-9.61,6.23h-2.45v-17.76h4.24c7.16,0,10.34,1.52,12.72,5.9l2.72,4.9h.8v-11.73h-33.59v.86l1.66.33c3.64.66,4.37,2.45,4.37,5.04v27.1c0,2.12-.53,4.64-4.37,5.23l-1.66.27v.86h35.12v-11.73h-.8l-2.72,4.64M426.19,50.63c-2.65,4.51-5.9,6.16-11.93,6.16h-1.66c-3.38,0-4.9-1.66-4.9-5.3v-13.78l2.45.07c6.1.13,7.75.4,9.61,6.23l.66,2.12h.86v-17.82h-.93l-.66,2.19c-1.86,5.83-3.64,6.1-9.61,6.23h-2.32v-17.76h4.31c7.09,0,10.27,1.52,12.72,5.9l2.65,4.9h.8v-11.73h-33.59v.86l1.66.33c3.64.66,4.37,2.45,4.37,5.04v27.1c0,2.12-.46,4.64-4.37,5.23l-1.66.27v.86h35.12v-11.73h-.8l-2.65,4.64M166.98,51.29V18.89h5.04c10.07,0,16.03,7.09,16.03,18.95s-5.63,18.95-15.5,18.95h-1.33c-3.58,0-4.31-2.19-4.31-5.5M173.68,18.03h-35.45v.86l1.59.2c3.58.53,5.63,1.99,5.7,8.28l.13,19.22-15.37-18.22c-4.51-5.23-6.49-7.75-7.82-10.2l-.13-.13h-14.05v.86h.27c2.85.53,4.64,1.72,7.75,5.04l.6.66v20.81c0,8.88-2.85,10.34-6.23,11.2l-1.13.27v.86h15.77v-.86l-1.13-.27c-2.98-.8-6.1-1.66-6.16-11.26l-.2-19.75,27.96,32.93h.86V26.44c0-4.97,2.19-7.49,6.63-7.49s6.56,2.52,6.56,7.49v24.91c0,2.32-.53,4.57-4.44,5.23l-1.59.27v.86h19.88c6.82,0,12.59-2.12,16.57-6.16,3.67-3.7,5.7-8.71,5.63-13.91,0-5.3-1.99-10.2-5.63-13.72-4.52-4.09-10.47-6.23-16.57-5.96M364.9,51.29V18.89h5.04c10.07,0,16.03,7.09,16.03,18.95s-5.63,18.95-15.5,18.95h-1.26c-3.58,0-4.31-2.19-4.31-5.5M371.66,18.03h-35.45v.86l1.59.2c3.58.53,5.63,1.99,5.7,8.28l.13,19.22-15.37-18.22c-4.64-5.43-6.49-7.75-7.82-10.2l-.13-.13h-14.05v.86h.27c2.92.53,4.7,1.72,7.75,5.04l.6.66v20.81c0,8.88-2.85,10.34-6.23,11.2l-1.13.27v.86h15.77v-.86l-1.13-.27c-2.98-.8-6.1-1.66-6.16-11.26l-.13-19.75,27.83,32.87.07.07h.86V26.44c0-4.97,2.19-7.49,6.63-7.49s6.63,2.52,6.63,7.49v24.91c0,2.32-.6,4.57-4.51,5.23l-1.59.27v.86h19.88c6.82,0,12.59-2.12,16.57-6.16,3.67-3.7,5.7-8.71,5.63-13.91,0-5.3-1.99-10.2-5.63-13.72-4.52-4.09-10.47-6.23-16.57-5.96M252.72,18.03h-17.16v.93l1.66.33c3.84.73,4.37,2.92,4.37,5.1v27.03c0,2.25-.53,4.37-4.37,5.17l-1.66.33v.86h19.88v-.86l-1.33-.27c-4.51-.93-5.3-1.86-5.3-5.76v-31.94h1.66c6.1,0,9.74,4.11,9.74,11s-3.64,11.07-9.74,11.07h-.46v.99h2.72c8.95,0,15.24-4.97,15.24-12.06s-6.29-11.93-15.24-11.93M228.21,50.56c-2.65,4.51-5.9,6.23-11.93,6.23h-1.72c-3.31,0-4.84-1.66-4.84-5.3v-13.78l2.45.07c6.03.13,7.69.4,9.61,6.23l.66,2.12h.8v-17.82h-.8l-.66,2.19c-1.86,5.83-3.64,6.1-9.61,6.23h-2.45v-17.76h4.24c7.09,0,10.34,1.52,12.72,5.9l2.72,4.9h.8v-11.73h-33.59v.86l1.66.33c3.64.66,4.37,2.45,4.37,5.04v27.1c0,2.12-.53,4.64-4.37,5.23l-1.66.27v.86h35.12v-11.73h-.86l-2.72,4.64" fill="#1c1b19"></path><circle cx="38.08" cy="38.08" r="38.08" fill="#ec1a2e"></circle><path d="M60.12,53.2c-.75-.42-.52-.28-4.14-2.43,0,0-2.76.53-6.34,1.3.05.02.1.04.15.06.05.03.11.07.15.11.06.04.11.09.15.14.08.1.15.21.19.34.02.06.03.12.04.18l.02.08v.08s0,.1-.02.15c0,.03-.01.06-.02.09l-.03.08h-.09s-.02-.05-.02-.08c0-.03-.01-.06-.02-.09l-.04-.1s-.03-.08-.05-.11l-.06-.12-.08-.12-.08-.12s-.07-.08-.11-.11l-.11-.1s-.07-.06-.11-.08c-.03-.03-.07-.05-.11-.08-.03-.02-.06-.04-.09-.05-.02-.01-.05-.03-.08-.04l-.77.17s.05,0,.07.02c.06.02.11.05.16.08.06.03.11.07.16.11.05.04.1.09.15.14.04.05.08.11.11.17.03.05.06.11.08.17.02.06.03.12.04.18v.15s0,.09,0,.14c0,.03-.02.07-.03.1,0,.03-.02.05-.03.08h-.08l-.03-.08s-.01-.06-.02-.09l-.04-.1-.05-.11-.06-.12s-.05-.08-.08-.12l-.08-.12s-.07-.08-.1-.11l-.11-.1s-.08-.05-.11-.08c-.03-.03-.07-.05-.1-.08l-.1-.05s-.05-.03-.08-.04l-.05-.03-2.04-1.73.08-.52-.21-1.21.21-.52v-1.73l-2.22,1.98-.06-.06,6.52-7.67-.05-.14-1.91-.34v-.09h3.43c.35.44,1.11.57,1.66.41l.02-.08-.69-1.1.28-.19c.28-.16.52-.09.79.3.25.37.38.84.08,1.13l.05.08c.45-.06.85-.29,1.13-.64.38-.51.32-1.28-.15-1.84-.41-.46-1.13-1.19-1.13-1.19.08-.87-.38-1.63-1.23-1.98-1.84-.74-3.24-1.26-3.24-1.26h-4.44s-.02-.11-.02-.11l4.41-.52,1.33-1.16,5.01-2c.16-.06.31-.16.43-.29.12-.13.21-.28.26-.44.65-1.79,2.65-7.13,2.65-7.13l6.18-8.35-.05-.08-4.06,2.9-.05-.06,1.72-3.45-.08-.05-2.66,3.82-.08-.03.31-3.81-.09-.02-.97,3.88h-.09l-1.56-3.89-.09.03,1.15,4.63-.14,2.18h-.08s-.25-1.91-.25-1.91l-2.74-4.65-.08.05,2.2,4.92.17,3.62h-.09l-.48-3.38-3.59-4.54-.07.05,3.1,4.75.2,4.98h-.08s-.63-4.71-.63-4.71l-3.98-4.17-.07.06,3.39,4.42.4,5.73h-.09l-.91-5.44-4.14-3.55-.06.07,3.58,3.87.61,5.98-.09.02-1.21-5.63-4.19-2.86-.05.08,3.59,3.17.97,5.92-.09.02-1.56-5.53-3.98-2.18-.05.08,3.42,2.5,1.12,5.73-.08.02-1.79-5.26-3.75-1.43-.04.09,3.14,1.79,1.3,5.23-.08.03-1.98-4.7-3.55-.64-.02.09,2.94,1.05,1.51,4.57-.08.04-2.27-3.89-2.98-.25-.02.09,2.34.77,1.76,3.69-.08.05-2.45-2.97-2.7.16v.09s2.14.4,2.14.4l1.95,2.87-.06.06-2.55-2.11-2.88.64.02.1h2.36l2.17,2.05-.05.08-2.63-1.23-3.01.46v.1l2.68.11,2.28,1.44-.03.08-2.51-.86-4.05.77v.09s3.8-.08,3.8-.08l2.31,1.07-.03.08-2.42-.57-6.11,1.03v.08l4.79.37.02.08-3.84.69v.08l2.62.15v.09l-3,.78,1.28,1.67-.08.08-2.91-2.48-7.53-10.44-6.84-3.51-5.43-4.89-1.65-4.5-.09.02.6,5.08,2.64,4.23-.08.06-3.83-3.18-1.82-3.53-.1.02.64,4.14,1.87,3.39-.06.05-3.05-2.48-1.58-2.37-.09.04.74,3.2,1.95,2.87-.06.06-3.03-1.74-1.33-1.69-.09.05.87,2.49,1.4,1.76-.05.06-1.39-.27-.04.09,2.97,2.79-.03.08-2.58-.15-.02.13,3.69,2.28-.02.08-1.72.14v.09s4.27,1.63,4.27,1.63v.08l-1.67.58.02.1,10.32.76v.08l-5.75.05-.11,1.18,7.2-.11v.09l-5.16.55-.23,1.4,7.01-.97.02.08-5.47,1.26-.08,1.62,7.2-1.98.03.09-5.94,2.32.03,1.48,7.28-3.03.03.08-5.87,3.16.2,1.52,7.13-3.62.05.08-5.82,3.69.33,1.29,6.87-3.78.05.08-5.33,3.56.51,1.37,5.67-3.39.05.08-3.72,2.76.65,1.3,2.76-1.69.05.06-1.03.9.51,1.03.61-.22.87-.31.48-.18c.08-.02.15-.07.23-.1.08-.03.15-.08.23-.12.15-.09.28-.19.41-.31l.1-.08.08-.09c.06-.06.12-.12.17-.18.06-.05.11-.12.15-.18l.14-.18c.05-.06.08-.13.11-.19l.1-.18c.05-.11.09-.22.13-.33.04-.1.06-.19.08-.27l.05-.18.02-.06.09.02v.06l-.03.18c0,.08-.03.18-.07.28-.03.12-.06.24-.11.36l-.08.2-.1.21c-.03.08-.08.14-.13.21l-.15.21-.16.21-.09.1-.1.09c-.13.13-.28.26-.43.37l-.23.15-.25.14c-.44.2-.89.39-1.33.58l-7.93,2.97-5.2,8.15.31.21,5.79-6.73.08.05-3.45,5.07,2.12-.33,3.19-4.71.08.05-2.32,4.57,1.99-.13,2.15-4.41.09.04-1.46,4.33,2.02-.14,1.26-4.15.1.02-.71,4.06,2.05-.4.44-3.73h.1v3.55l1.52-.86-.23-2.68.09-.02.54,2.45.54.31.41,1.1.6.21,1.21.98.46.37v.02s-.04.05-.04.05l-.79-.34c-2.94.8-5.86,1.66-8.77,2.56h.02l2.97,1.7,1.46.84.67.38.16.09.08.04.04.02h.02v.02l.02.02c.1.06.19.14.28.22.15.15.27.33.33.54.04.16.05.32.03.48-.01.1-.04.2-.08.29l-.04.1-.1-.04.03-.1c.02-.09.04-.18.04-.27.01-.14,0-.28-.05-.41-.06-.17-.17-.31-.31-.43-.08-.07-.17-.13-.26-.18l-.02-.02-.05-.02-.08-.03-.17-.08c-.23-.1-.46-.21-.71-.31l-1.54-.69-.99-.43-2.28.73c-.97.31-.91,1.61,0,1.95,1.37.53,2.76,1.03,4.15,1.52.49.19,1.02.27,1.54.24.52-.03,1.03-.18,1.5-.44l3.64-1.66c2.58-1.37,6.22-4.3,6.22-4.3l.06.06-2.84,2.71c1.92-.87,3.79-1.68,5.03-2.18,1.47-.74,2.88-1.59,4.22-2.54l.06.06-1.95,1.76c2.21-.42,5.83-.77,7.79-.77,2.61,0,2.66-2.24,1.28-3ZM53.52,37.72c.34.34.71.66,1.06,1,.04.05.07.09.11.15.02.02.04.05.05.08l.04.08c.03.05.05.11.07.16.02.06.03.11.03.17.01.06.02.12.02.18,0,.03,0,.06,0,.08,0,.03-.02.06-.02.08-.01.06-.03.11-.05.17,0,.02-.02.05-.04.08l-.04.07-.08-.05.03-.08s.02-.05.03-.07c.01-.05.02-.1.03-.15,0-.03,0-.05,0-.08v-.08s-.01-.1-.02-.15c-.01-.05-.03-.09-.05-.14-.02-.05-.04-.09-.07-.13-.01-.02-.02-.04-.04-.06-.01-.02-.03-.04-.05-.06-.03-.04-.06-.07-.1-.1-.38-.28-.77-.58-1.16-.87l.26-.29ZM51.43,36.78c0-.07.04-.14.08-.2l.02-.03s.02-.03.04-.05l.07-.05s.06-.04.09-.05l.02-.02.11-.02h.02l.06.11-.02.02s-.05.05-.08.07c0,0,0,.02,0,.02l-.02.04-.02.04s0,.02,0,.02l-.02.03s0,.02,0,.02v.02s0,.03,0,.04v.02s0,.03,0,.05c0,.02,0,.04.02.05v.02l.03.04s0,.02.02.03c0,0,.02.01.02.02.01,0,.03.02.04.03h.02l.03.02s.07.02.1.02c.03,0,.07,0,.1-.02l.05-.02h.02s.03-.03.03-.03c.01,0,.03-.02.04-.03l.02-.02s.01-.01.02-.02v-.02s.02-.01.03-.02l.02-.05s.01-.04.02-.05v-.03s0-.05,0-.08v-.02l.11-.05.02.02s.04.06.05.09l.02.03s.02.07.02.1v.08s0,.05-.02.08v.02c-.02.07-.05.14-.09.2-.05.06-.11.12-.18.15l-.02.02h-.03s-.02.02-.02.02l-.06.02s-.09.02-.13.02h-.05c-.08,0-.17-.02-.25-.05l-.03-.02s-.06-.04-.09-.06c-.02-.01-.04-.03-.05-.05-.02-.02-.04-.03-.05-.05-.03-.04-.06-.08-.08-.12l-.03-.07v-.05s0-.02,0-.02c0-.04-.01-.08-.02-.11,0-.04.01-.08.03-.11ZM51.3,39.31c.02-.07.06-.14.1-.2.02-.03.04-.05.06-.08l.03-.02.02-.02h.02l.02-.02c.06-.04.13-.07.2-.09.1-.03.2-.04.3-.02.03,0,.06.01.09.02l.08.03s.04.03.06.05c.02.01.04.03.06.05l.05.05.04.05.02.04.03.08-.07.06s-.05-.03-.07-.05l-.03-.02-.04-.02s-.06-.02-.08-.02c-.02,0-.05-.01-.08-.02h-.03s-.04,0-.05,0h-.06s-.07.02-.11.04c-.03.01-.07.03-.1.05l-.02.02-.03.03s-.03.02-.04.04c-.03.03-.05.05-.07.08,0,.02,0,.04-.02.05,0,.02-.01.03-.02.05-.01.03-.02.07-.03.1,0,.03,0,.07,0,.1v.08s.02.05.02.08l-.05.04s-.05-.03-.07-.05l-.03-.04-.03-.05-.03-.05s-.02-.05-.02-.07l-.02-.08v-.08c0-.06,0-.13.02-.19ZM17.1,17.48l.11-.08,3.06,4.07,5.02,2.41-.07.14-5.39-2.08-2.73-4.46ZM12.2,20.87l.1-.11,3.27,3.08,6.64,2.15-.05.14-7.02-1.79-2.94-3.47ZM10.51,22.66l.09-.09,3.53,2.87,7.85,2.15-.04.15-8.15-1.76-3.27-3.31ZM11.14,26.9l.05-.14,10.86,2.24-.03.15-8.05-1.23-2.83-1.03ZM22.73,30.68l-5.72-.52-2.89-.84.04-.15,8.58,1.36-.02.15ZM22.96,24.78l-5.79-1.92-2.4-3.3.1-.08,2.78,2.96,5.37,2.22-.07.13ZM23.7,26.86l-.1-.05v-1.25s.13-.02.13-.02l.14.75,2.55-1.3.06.11-2.78,1.75ZM24.05,28.8l.02-1.25.12-.02.14.75,3.37-1.79.05.1-3.6,2.25-.1-.05ZM25.12,30.57l-.11-.06.02-1.25.11-.02.14.76,3.56-1.93.06.1-3.79,2.4ZM26.54,32.03l-.11-.05.02-1.26h.12s.14.75.14.75l3.49-1.82.06.1-3.72,2.28ZM28.32,33.29l-.09-.05.02-1.24.12-.02.14.76,3.07-1.6.08.1-3.33,2.06ZM30.24,34.5l-.09-.05.02-1.23.11-.02.15.74,2.54-1.3.06.1-2.79,1.75ZM32.12,35.66l-.1-.05.02-1.2h.11l.14.69,1.82-.86.06.1-2.05,1.31ZM33.67,36.83l-.08-.05.05-1h.11l.11.52,1.3-.57.05.09-1.53,1ZM34.84,38.08l-.09-.06.11-.91.11.02.05.44,1.58-.7.06.1-1.82,1.11ZM35.78,40.92l-.08-.06.12-.72h.11l.02.28.75-.31.06.1-.98.71ZM35.49,39.41l-.09-.06.11-.72h.11l.04.28,1.11-.54.06.09-1.35.94ZM31.19,47.92l-.06-.05.18-.33-.34-.15.02-.08h.87l.02.08-.69.54ZM33.65,47.92l-.06-.05.18-.33-.34-.15.02-.08h.87l.03.08-.7.54ZM34.29,62.18l-.88-.31-.88-.29-1.76-.56h-.02s-.06-.03-.08-.05c-.02-.02-.04-.04-.06-.07-.01-.03-.02-.06-.02-.09,0-.03,0-.06.01-.09.01-.04.03-.07.06-.1.03-.03.06-.05.1-.06l1.82-.5.03.08-1.2.63,1.23.54c.29.12.57.26.84.38l.84.4-.02.08ZM43.6,46.76l-.08-.05.16-.45-.46-.11v-.08l1.07-.18.04.08-.74.8ZM41.73,44.09v-.08l1.61-.54.05.06-.95,1.42-.08-.03.15-.77-.78-.07ZM41.04,47.4v-.08l.86-.15.04.08-.59.64-.08-.04.12-.35-.35-.09ZM41.11,41.49v-.08s1.62-.48,1.62-.48l.05.07-1,1.38-.08-.04.17-.76-.77-.09ZM45.34,44.76l-.08-.05.15-.44-.46-.11v-.09l1.07-.18.04.08-.73.8ZM46.66,40.6l.19-.44-.45-.15.02-.08,1.08-.1.04.08-.8.74-.07-.05ZM48.08,35.82h.87l.02.08-.69.54-.06-.05.18-.33-.34-.15.02-.08ZM47.64,42.2l-.6.64-.08-.04.12-.35-.35-.09v-.08l.86-.15.05.08ZM47.59,37.43l-1.07.84-.06-.05.29-.54-.56-.25.02-.08h1.36l.02.08ZM45.59,35.29h1.09l.02.08-.86.67-.06-.05.23-.42-.44-.18.02-.08ZM45.47,41.47l-.86,1.05-.08-.04.17-.58-.6-.11v-.1l1.33-.29.03.08ZM45.36,38.84l.04.07-1.07,1.23-.08-.04.23-.71-.73-.15v-.09l1.61-.31ZM44.77,36.87l-1.07.83-.08-.05.31-.54-.57-.24.02-.08h1.36l.02.08ZM42.72,35.29h.87l.02.08-.69.54-.06-.05.18-.33-.34-.15.02-.08ZM42.33,38.48l.04.08-1.18,1.23-.08-.05.27-.73-.75-.2v-.08l1.7-.25ZM39.63,45.61v-.09l1.34-.28.04.08-.88,1.03-.08-.04.18-.59-.6-.11ZM40.24,36.44h1.36l.03.08-1.07.84-.07-.06.29-.54-.56-.23.02-.08ZM40.17,43.09l-.82,1.09-.08-.04.14-.6-.6-.08v-.1l1.3-.36.05.08ZM39.75,40.91l-.84,1-.08-.05.16-.56-.57-.11v-.08l1.28-.27.05.08ZM38.22,38.96l1.07-.18.04.08-.74.8-.08-.05.15-.44-.46-.11v-.09ZM35.41,46.5l-.07-.05.18-.33-.34-.15.02-.08h.87l.02.08-.69.54ZM36.12,48.42l-.06-.05.18-.32-.34-.15.02-.08h.87l.02.08-.69.53ZM37.12,45.2l-.08-.05.23-.43-.45-.17.02-.09,1.09-.03.03.08-.84.7ZM37.79,47.03l-.07-.05.23-.42-.44-.18.02-.08h1.09l.02.08-.86.67ZM38.85,48.59l-.07-.05.18-.33-.34-.15.02-.08h.87l.02.08-.69.54ZM35.11,57.62l-.3.1-.23.07-.21.06-.31.09-.05-.13.02-.02.27-.11.32-.13.08-.03.33-.13c.3-.12.61-.23.91-.34l.11-.04.23-.08c.31-.11.63-.23.96-.34.4-.13.8-.26,1.2-.38l.16-.05.38-.11.51-.13.61-.15.14-.04.29-.06h.02l.05.13h-.03s-.28.11-.28.11l-.19.07-.54.18-.49.16-.11.04-.44.15c-.38.13-.78.26-1.19.38l-.31.11-.88.29-.42.13-.63.2ZM44.46,55.9l-.3.1-.71.25-.16.05-.51.18c-.25.08-.5.18-.74.26l-1.63.57-1.05.38-.57.21c-.18.08-.34.13-.51.19l-.23.08-.48.18-.2.08c-.24.09-.48.17-.72.25l-.28.11-.38.13h-.03s-.05-.12-.05-.12l.03-.02.38-.15.28-.12.71-.3.14-.05.52-.21.24-.09.51-.2.57-.22c.34-.12.69-.26,1.05-.38l1.64-.57.38-.13.37-.11.69-.21.71-.21.31-.09.42-.12.05.14-.41.16ZM40.7,54.21v-.09s.07-.01.1-.02c.03,0,.07,0,.1,0,.04,0,.09,0,.13,0h.03l.05.02s.05.01.08.02c.06.02.11.04.17.06.06.03.11.07.16.11.06.04.11.09.15.14l.04.05s.05.07.08.11c.03.06.06.12.08.18.02.06.04.12.05.18l.02.08v.08s0,.09-.02.14c0,.03,0,.07-.02.1l-.03.08h-.09l-.02-.08s-.02-.06-.03-.08c-.01-.04-.02-.07-.04-.11-.01-.04-.03-.08-.05-.11-.02-.04-.04-.08-.07-.12l-.08-.11-.09-.11-.08-.08s-.01-.02-.02-.03l-.11-.1s-.08-.06-.11-.08c-.03-.02-.07-.05-.11-.07l-.1-.05-.08-.04-.08-.04ZM43.36,53.52h.03c.06.03.11.05.17.08.06.03.11.07.16.11.05.04.11.08.15.13.04.05.08.11.11.17.03.05.06.11.08.17.02.06.04.12.05.18l.02.08v.08s0,.09,0,.14c0,.03-.01.07-.02.1l-.03.08h-.08s-.02-.05-.03-.08c0-.03-.02-.06-.03-.09l-.04-.1s-.03-.08-.05-.11c-.02-.04-.04-.08-.07-.12l-.08-.11-.08-.12s-.07-.08-.11-.11l-.11-.1s-.07-.05-.11-.08c-.07-.05-.13-.09-.21-.12-.02-.02-.05-.03-.08-.05h-.03s-.66.15-.66.15l-.09.02.08.02c.06.02.11.05.17.08.05.03.11.06.15.1.06.04.11.09.15.14.04.05.08.1.11.16.03.06.06.12.08.18.02.06.03.12.05.18l.02.08v.08s0,.09,0,.13c0,.03-.01.07-.02.1,0,.03-.02.05-.03.08h-.09l-.02-.08s-.02-.06-.03-.08l-.04-.1-.05-.12-.06-.11-.08-.12s-.07-.08-.09-.11c-.03-.04-.07-.07-.11-.11l-.11-.1s-.08-.05-.11-.08l-.11-.07-.1-.05-.08-.04-.07-.03-1.18-1.36-.58-3.26.11-.05,2.25,2.74.78-.02,2.01,1.12-1.85.46ZM46.93,52.67v-.08s.1,0,.1,0c.03,0,.07,0,.1,0,.04,0,.09,0,.13,0h0l.07.02.08.02c.12.04.23.1.32.18.04.03.08.07.11.11l.03.03s.08.1.11.16c.03.06.06.12.08.18.02.06.03.12.04.18v.08s0,.08,0,.08c0,.05,0,.09,0,.14,0,.03-.01.07-.02.1l-.04.08h-.08l-.03-.08s-.02-.06-.03-.09l-.04-.1-.05-.11-.07-.12-.08-.12s-.05-.08-.08-.12l-.1-.11s-.03-.03-.05-.05c-.02-.02-.04-.03-.05-.05l-.11-.08-.11-.08-.1-.05-.08-.04-.08-.04v-.02ZM49.74,54.48l-.14.05-.11.03-.26.08c-.37.1-.74.19-1.11.27l-.11.02c-.35.08-.7.16-1.05.23l-.28.04-.11.02-.15.02h-.02l-.03-.14h.02s.14-.05.14-.05l.08-.03.29-.09c.34-.11.75-.22,1.12-.31l.61-.12.54-.09.28-.03.11-.02.15-.02h.02l.02.14h-.02ZM51.04,53.19h-.02l-.03-.14h.02l.18-.05c.16-.04.32-.08.48-.12.48-.11.96-.21,1.45-.31h.02l.77-.14.64-.09h.05l.37-.05.11-.02.18-.02h.03l.02.14h-.03l-.18.05-.13.03-.34.08-.37.08-.31.07-.65.13-.12.02c-.6.11-1.21.21-1.82.29l-.13.02-.18.03h0ZM57.02,53.36l-.25.04-.42.08c-.31.06-.63.11-.94.15l-.54.08-.11.02-.44.07-.42.05-.66.1-.38.05-.12.02-.44.06-.46.06-.21.02-.28.03-.02-.14.28-.06.19-.05.47-.09.25-.05.2-.04.2-.04.29-.05c.16-.03.34-.07.54-.09l.54-.08.55-.08.54-.08.63-.06.31-.04.6-.05h.08s.26-.02.26-.02h.02l.02.14-.27.05Z" fill="#fff"></path></g></svg> 