<?xml version="1.0" encoding="UTF-8"?> <svg xmlns="http://www.w3.org/2000/svg" id="b" viewBox="0 0 600.1 147.2"><g id="c"><path d="M20.1,3.5h29.2l24.7,54.5L99.5,3.5h29.2l19.3,140.2h-37.4l-8.2-57.6h-.4l-28,58.6-28-58.6h-.4l-8.2,57.6H0L20.1,3.5ZM160.5,3.5h75.1l5.6,37h-44.1v14.6h28.8v37h-28.8v14.6h49.1l-9.5,37h-76.2V3.5ZM250.7,3.5h86.4l3.7,35.4h-28.6v104.7h-36.6V38.9h-28.6l3.7-35.4ZM351.3,3.5h48.1c14.4,0,25.9,3.9,34.4,11.6,8.5,7.7,12.8,18.9,12.8,33.4s-6.4,26-19.1,34.5l26.9,60.7h-41.3l-24.7-57.8h-.4v57.8h-36.6V3.5h-.1ZM387.9,69.3c7.1,0,12.6-1.4,16.4-4.1s5.6-7.1,5.6-13.2-1.9-10.5-5.6-13.2c-3.8-2.7-9.2-4.1-16.4-4.1v34.6ZM594.5,102c-3.8,9-9,16.8-15.7,23.7-6.7,6.8-14.4,12.1-23.2,15.9-8.8,3.8-17.9,5.6-27.5,5.6s-18.8-1.9-27.5-5.6c-8.8-3.8-16.5-9.1-23.2-15.9s-11.9-14.7-15.7-23.7c-3.8-9-5.6-18.4-5.6-28.4s1.9-19.5,5.6-28.4c3.8-9,9-16.8,15.7-23.7,6.7-6.8,14.4-12.1,23.2-15.9,8.8-3.8,17.9-5.6,27.5-5.6s18.8,1.9,27.5,5.6c8.8,3.8,16.5,9.1,23.2,15.9,6.7,6.8,11.9,14.7,15.7,23.7,3.8,9,5.6,18.4,5.6,28.4s-1.9,19.5-5.6,28.4ZM560.1,60.1c-1.8-4.3-4.3-8.2-7.5-11.6-3.2-3.4-7-6-11.2-7.9s-8.7-2.8-13.3-2.8-9.1.9-13.3,2.7c-4.2,1.8-7.9,4.4-11.1,7.7s-5.7,7.1-7.5,11.5c-1.8,4.3-2.7,9-2.7,13.9s.9,9.4,2.7,13.8c1.8,4.4,4.3,8.3,7.5,11.6,3.2,3.3,6.9,5.9,11.1,7.7,4.2,1.8,8.7,2.7,13.3,2.7s9.1-.9,13.3-2.8c4.2-1.9,7.9-4.5,11.2-7.9,3.2-3.4,5.7-7.2,7.5-11.6,1.8-4.3,2.6-8.9,2.6-13.5s-.9-9.2-2.6-13.5Z" fill="#010202"></path></g></svg> 