<svg xmlns="http://www.w3.org/2000/svg" fill="none" viewBox="0 0 76 34"><g clip-path="url(#a)"><path d="M0 .7h75.3v32.6H0z" fill="#EB1701"/><path d="M30.6 10.9q-2.7-5-11.9-5c-7.2 0-11.6 2.4-11.6 6.5q0 3.9 6.3 5.5l1.9.5 1.8.5 1.9.4.3.2q1 .4 1.1 1-.2 1.5-3.1 1.5-4.4 0-5.4-2l-8.2 1q3.1 5.7 13.4 5.7c7.3 0 12.3-3 12.3-7 0-2.4-2.3-4.6-5.7-5.4l-1.6-.4-1.7-.4-1.6-.4-1.2-.4q-1.4-.4-1.4-1.1 0-1.4 2.7-1.4 3.5 0 4.4 2zm20.6 1.9h-7.3l-1.6 6.7q-.8 3.4-3.2 3.4-1.3 0-1.3-1l.2-1.3 1.8-7.8h-7.3l-2 8.5-.4 2.3c0 1.8 2.3 3.2 5.1 3.2 3 0 4.7-.8 6.5-3l-.6 2.6H48zm1.5 0-3.2 13.6h7l2-8.2q.6-2.1 2.7-2.2 1.8 0 1.8 1.1l-.2 1.1-1.8 8.2h7.3l2.1-9.3q.3-.8.2-1.4c0-2-2.2-3.4-5.4-3.4q-4.6 0-6.3 2.7l.6-2.2zM40 7.7h1.3l.3-1H37l-.3 1h1.4l-.8 3.4h1.8zm5 1.6-.4 1.8h1.8l1-4.4h-1.8l-.4 1.6h-1.6l.4-1.6h-1.8l-1 4.4h1.7l.5-1.8zm6.8.8h-2.7l.2-.8h2.2l.2-1h-2.2l.1-.7h2.7l.2-1h-4.4l-1 4.5h4.5z" fill="#fff"/></g><defs><clipPath id="a"><path fill="#fff" d="M0 .7h75.3v32.6H0z"/></clipPath></defs></svg>