<?xml version="1.0" encoding="UTF-8"?> <svg xmlns="http://www.w3.org/2000/svg" id="b" viewBox="0 0 627.78 126.02"><g id="c"><path d="M61.52,124.93l11.14-110.17c.63-5.65,1.73-6.59,3.61-6.59h1.1V1.88h-18.05v6.28h1.1c2.51,0,3.77,1.73,3.45,6.59l-6.43,65.92-7.38-65.92c-.63-5.18.63-6.59,3.45-6.59h.31V1.88h-25.11v6.28h1.26c2.35,0,2.35.94,2.83,6.59l1.88,16.79-5.81,53.36L22.29,14.75c-.79-5.65.31-6.59,2.82-6.59h.31V1.88H0v6.28h1.26c2.67,0,2.82.94,3.45,6.59l11.3,110.17h16.32l6.43-56.66,6.59,56.66s16.17,0,16.17,0ZM169.66,52.73c0-7.69,0-10.36,4.86-10.36,3.3,0,3.3,1.26,3.3,7.69v65.76c0,2.36-.79,2.83-2.04,2.83h-.78v6.28h25.27v-6.28h-1.1c-1.72,0-2.2-.63-2.2-3.14V46.61c0-11.3-2.35-15.7-13.5-15.7-6.44,0-11.14,2.04-14.12,9.1-1.26-6.28-4.55-9.1-13.18-9.1-7.06,0-10.83,2.2-13.65,9.1v-9.1l-21.66,1.73v6.28h.94c1.41,0,2.51,1.1,2.51,4.55v71.56c0,2.83-.63,3.61-2.51,3.61h-.94v6.28h24.17v-6.28h-.94c-1.26,0-1.57-.47-1.57-2.36v-63.56c0-7.69-.16-10.36,4.71-10.36,3.3,0,3.3,1.26,3.3,7.69v65.76c0,2.36-.78,2.83-1.88,2.83h-1.1v6.28h24.8v-6.28h-.31c-1.72,0-2.35-.63-2.35-3.14v-62.77ZM346.22,124.93h30.29v-6.28h-2.04c-2.67,0-3.45-1.1-3.45-6.59v-47.4h16.01v47.4c0,5.49-.78,6.59-3.3,6.59h-2.36v6.28h30.13v-6.28h-2.51c-2.67,0-3.14-1.1-3.14-6.59V14.75c0-5.65.47-6.59,3.14-6.59h2.51V1.88h-30.13v6.28h2.36c2.51,0,3.3.94,3.3,6.59v42.53h-16.01V14.75c0-5.65.78-6.59,3.45-6.59h2.04V1.88h-30.29v6.28h2.67c2.51,0,3.3.94,3.3,6.59v100.44c0,2.67-.78,3.46-3.3,3.46h-2.67v6.28ZM575.04,124.93h24.01v-6.28h-.78c-1.57,0-1.73-.47-1.73-2.36v-63.56c0-7.69.16-10.36,5.02-10.36,3.61,0,3.61,1.26,3.61,7.69v65.76c0,2.36-.62,2.83-1.72,2.83h-1.1v6.28h25.43v-6.28h-1.1c-1.73,0-2.04-.63-2.04-3.14V46.61c0-11.3-2.83-15.7-13.81-15.7-7.22,0-11.3,2.2-14.28,9.1V0l-23.07,1.88v6.28h2.36c1.57,0,2.51.94,2.51,4.4v102.48c0,2.83-.47,3.61-2.51,3.61h-.79v6.28ZM95.42,126.02c20.09,0,22.91-16.79,22.91-47.55s-2.98-47.55-22.91-47.55-22.91,16.64-22.91,47.55c0,30.76,2.82,47.55,22.91,47.55ZM247.5,124.93h24.17v-6.28h-1.1c-1.41,0-1.41-.47-1.41-2.36v-63.56c0-7.69,0-10.36,5.02-10.36,3.45,0,3.61,1.26,3.61,7.69v65.76c0,2.36-.94,2.83-1.88,2.83h-1.1v6.28h25.43v-6.28h-1.1c-1.73,0-2.2-.63-2.2-3.14V46.61c0-11.3-2.67-15.7-13.81-15.7-7.06,0-11.3,2.2-13.96,9.1v-9.1l-23.23,1.73v6.28h2.51c1.41,0,2.51,1.1,2.51,4.55v71.56c0,2.83-.62,3.61-2.51,3.61h-.94v6.28h0ZM470.2,126.02c8.32,0,11.46-4.08,13.18-8.95,1.57,7.22,3.3,8.95,12.71,8.95,10.99,0,12.4-6.59,12.24-19.46h-5.18c0,9.26-.16,10.2-1.88,10.2-1.57,0-1.57-.78-1.57-5.96v-61.05c0-12.4-4.08-18.83-18.52-18.83-11.46,0-22.76,3.45-22.13,15.85.32,5.65,2.51,11.61,8.48,11.3,5.49-.31,8-3.29,8-7.85,0-3.14-2.36-8.32-6.12-11.14,1.41-.63,3.61-1.26,7.22-1.26,4.08,0,4.86,3.14,4.86,9.1v17.11c-20.87,7.06-25.27,9.89-25.27,36.1,0,18.84,4.55,25.9,13.97,25.9h0ZM434.26,126.02c15.53,0,19.14-4.71,18.36-30.44h-6.44c0,20.4-.63,21.97-7.85,21.97-8.63,0-8.63-3.77-8.63-38.76v-2.83h25.11c0-35.31-3.92-45.04-20.56-45.04-15.07,0-22.91,9.26-22.91,48.18,0,37.04,5.96,47.08,22.92,46.92h0ZM225.68,126.02c15.23,0,19.46-4.71,18.83-30.44h-6.43c0,20.4-.94,21.97-8.32,21.97-9.26,0-8.79-3.77-8.79-38.76v-2.83h24.33c0-35.31-3.29-45.04-19.62-45.04-15.22,0-23.07,9.26-23.07,48.18,0,37.04,5.96,47.08,23.07,46.92h0ZM511.8,124.93h25.11v-6.28h-1.88c-1.57,0-2.2-.79-2.2-3.3V0l-23.38,1.88v6.28h2.67c1.57,0,2.2.63,2.2,3.14v104.37c0,2.35-.16,2.98-1.26,2.98h-1.26v6.28h0ZM328.48,126.02c11.46,0,17.42-7.53,17.42-18.83,0-26.52-24.01-41.9-24.01-60.89,0-5.81,2.04-7.53,6.12-7.53,5.96,0,6.91,2.51,8,11.46l.94,8.79h6.91v-27.31h-5.49c-.32,3.46-1.1,4.71-1.42,4.24-1.72-2.04-5.81-5.02-12.55-5.02-10.05,0-18.83,4.55-18.83,19.46,0,23.23,23.86,40.96,23.86,58.7,0,7.69-1.72,8.95-7.22,8.95s-6.9-2.51-8-14.12l-.79-7.69h-7.22v28.72h6.28c.47-3.14,1.57-5.18,2.51-4.24,2.04,2.36,4.24,5.34,13.49,5.34h0ZM541.61,105.47c0,14.91,2.2,20.56,16.95,20.56,10.36,0,12.71-4.08,12.71-15.53v-15.54h-6.28v16.32c0,5.49-.47,6.12-2.51,6.12s-2.51-.63-2.51-5.49V38.76h11.46v-7.06h-11.3V8.16h-6.43c-4.55,20.87-8.47,23.54-14.6,23.54h-1.72v6.91h4.24v66.86h0ZM95.42,118.02c-4.39,0-4.39-2.51-4.39-39.55s0-39.71,4.39-39.71,4.4,2.51,4.4,39.71,0,39.55-4.4,39.55ZM302.43,35.63c15.69-11.62,18.83-20.4,13.65-28.41-2.83-4.39-9.26-7.22-13.97-3.3-5.65,4.71-4.24,12.87,6.28,17.58-1.88,2.2-6.28,6.44-9.89,10.05l3.93,4.08ZM477.74,115.04c-3.77,0-3.77-3.92-3.77-16.32,0-22.6,0-25.58,7.53-29.66v38.76c0,5.81-.78,7.22-3.76,7.22ZM220.98,69.37c.31-29.35.79-30.76,4.87-30.76s3.61,1.57,3.61,30.76h-8.48ZM429.71,69.37c.47-29.35.78-30.76,4.86-30.76s3.45,1.57,3.45,30.76h-8.32Z" fill="#df1e36"></path></g></svg> 